%TF.GenerationSoftware,KiCad,Pcbnew,8.0.2*%
%TF.CreationDate,2024-06-20T13:36:58+03:00*%
%TF.ProjectId,r_le,72f66c65-2e6b-4696-9361-645f70636258,rev?*%
%TF.SameCoordinates,Original*%
%TF.FileFunction,Legend,Top*%
%TF.FilePolarity,Positive*%
%FSLAX46Y46*%
G04 Gerber Fmt 4.6, Leading zero omitted, Abs format (unit mm)*
G04 Created by KiCad (PCBNEW 8.0.2) date 2024-06-20 13:36:58*
%MOMM*%
%LPD*%
G01*
G04 APERTURE LIST*
%ADD10C,0.150000*%
%ADD11C,0.120000*%
%ADD12C,0.127000*%
G04 APERTURE END LIST*
D10*
X58730219Y11161733D02*
X58254028Y10828400D01*
X58730219Y10590305D02*
X57730219Y10590305D01*
X57730219Y10590305D02*
X57730219Y10971257D01*
X57730219Y10971257D02*
X57777838Y11066495D01*
X57777838Y11066495D02*
X57825457Y11114114D01*
X57825457Y11114114D02*
X57920695Y11161733D01*
X57920695Y11161733D02*
X58063552Y11161733D01*
X58063552Y11161733D02*
X58158790Y11114114D01*
X58158790Y11114114D02*
X58206409Y11066495D01*
X58206409Y11066495D02*
X58254028Y10971257D01*
X58254028Y10971257D02*
X58254028Y10590305D01*
X57730219Y11495067D02*
X57730219Y12114114D01*
X57730219Y12114114D02*
X58111171Y11780781D01*
X58111171Y11780781D02*
X58111171Y11923638D01*
X58111171Y11923638D02*
X58158790Y12018876D01*
X58158790Y12018876D02*
X58206409Y12066495D01*
X58206409Y12066495D02*
X58301647Y12114114D01*
X58301647Y12114114D02*
X58539742Y12114114D01*
X58539742Y12114114D02*
X58634980Y12066495D01*
X58634980Y12066495D02*
X58682600Y12018876D01*
X58682600Y12018876D02*
X58730219Y11923638D01*
X58730219Y11923638D02*
X58730219Y11637924D01*
X58730219Y11637924D02*
X58682600Y11542686D01*
X58682600Y11542686D02*
X58634980Y11495067D01*
X49304905Y14762180D02*
X49304905Y15762180D01*
X49304905Y15762180D02*
X49543000Y15762180D01*
X49543000Y15762180D02*
X49685857Y15714561D01*
X49685857Y15714561D02*
X49781095Y15619323D01*
X49781095Y15619323D02*
X49828714Y15524085D01*
X49828714Y15524085D02*
X49876333Y15333609D01*
X49876333Y15333609D02*
X49876333Y15190752D01*
X49876333Y15190752D02*
X49828714Y15000276D01*
X49828714Y15000276D02*
X49781095Y14905038D01*
X49781095Y14905038D02*
X49685857Y14809800D01*
X49685857Y14809800D02*
X49543000Y14762180D01*
X49543000Y14762180D02*
X49304905Y14762180D01*
X50209667Y15762180D02*
X50828714Y15762180D01*
X50828714Y15762180D02*
X50495381Y15381228D01*
X50495381Y15381228D02*
X50638238Y15381228D01*
X50638238Y15381228D02*
X50733476Y15333609D01*
X50733476Y15333609D02*
X50781095Y15285990D01*
X50781095Y15285990D02*
X50828714Y15190752D01*
X50828714Y15190752D02*
X50828714Y14952657D01*
X50828714Y14952657D02*
X50781095Y14857419D01*
X50781095Y14857419D02*
X50733476Y14809800D01*
X50733476Y14809800D02*
X50638238Y14762180D01*
X50638238Y14762180D02*
X50352524Y14762180D01*
X50352524Y14762180D02*
X50257286Y14809800D01*
X50257286Y14809800D02*
X50209667Y14857419D01*
X38390533Y16342380D02*
X38057200Y16818571D01*
X37819105Y16342380D02*
X37819105Y17342380D01*
X37819105Y17342380D02*
X38200057Y17342380D01*
X38200057Y17342380D02*
X38295295Y17294761D01*
X38295295Y17294761D02*
X38342914Y17247142D01*
X38342914Y17247142D02*
X38390533Y17151904D01*
X38390533Y17151904D02*
X38390533Y17009047D01*
X38390533Y17009047D02*
X38342914Y16913809D01*
X38342914Y16913809D02*
X38295295Y16866190D01*
X38295295Y16866190D02*
X38200057Y16818571D01*
X38200057Y16818571D02*
X37819105Y16818571D01*
X38771486Y17247142D02*
X38819105Y17294761D01*
X38819105Y17294761D02*
X38914343Y17342380D01*
X38914343Y17342380D02*
X39152438Y17342380D01*
X39152438Y17342380D02*
X39247676Y17294761D01*
X39247676Y17294761D02*
X39295295Y17247142D01*
X39295295Y17247142D02*
X39342914Y17151904D01*
X39342914Y17151904D02*
X39342914Y17056666D01*
X39342914Y17056666D02*
X39295295Y16913809D01*
X39295295Y16913809D02*
X38723867Y16342380D01*
X38723867Y16342380D02*
X39342914Y16342380D01*
X9754619Y12214266D02*
X10468904Y12214266D01*
X10468904Y12214266D02*
X10611761Y12166647D01*
X10611761Y12166647D02*
X10707000Y12071409D01*
X10707000Y12071409D02*
X10754619Y11928552D01*
X10754619Y11928552D02*
X10754619Y11833314D01*
X9849857Y12642838D02*
X9802238Y12690457D01*
X9802238Y12690457D02*
X9754619Y12785695D01*
X9754619Y12785695D02*
X9754619Y13023790D01*
X9754619Y13023790D02*
X9802238Y13119028D01*
X9802238Y13119028D02*
X9849857Y13166647D01*
X9849857Y13166647D02*
X9945095Y13214266D01*
X9945095Y13214266D02*
X10040333Y13214266D01*
X10040333Y13214266D02*
X10183190Y13166647D01*
X10183190Y13166647D02*
X10754619Y12595219D01*
X10754619Y12595219D02*
X10754619Y13214266D01*
X46497495Y3823580D02*
X46497495Y3014057D01*
X46497495Y3014057D02*
X46545114Y2918819D01*
X46545114Y2918819D02*
X46592733Y2871200D01*
X46592733Y2871200D02*
X46687971Y2823580D01*
X46687971Y2823580D02*
X46878447Y2823580D01*
X46878447Y2823580D02*
X46973685Y2871200D01*
X46973685Y2871200D02*
X47021304Y2918819D01*
X47021304Y2918819D02*
X47068923Y3014057D01*
X47068923Y3014057D02*
X47068923Y3823580D01*
X48068923Y2823580D02*
X47497495Y2823580D01*
X47783209Y2823580D02*
X47783209Y3823580D01*
X47783209Y3823580D02*
X47687971Y3680723D01*
X47687971Y3680723D02*
X47592733Y3585485D01*
X47592733Y3585485D02*
X47497495Y3537866D01*
X70130419Y12214266D02*
X70844704Y12214266D01*
X70844704Y12214266D02*
X70987561Y12166647D01*
X70987561Y12166647D02*
X71082800Y12071409D01*
X71082800Y12071409D02*
X71130419Y11928552D01*
X71130419Y11928552D02*
X71130419Y11833314D01*
X71130419Y13214266D02*
X71130419Y12642838D01*
X71130419Y12928552D02*
X70130419Y12928552D01*
X70130419Y12928552D02*
X70273276Y12833314D01*
X70273276Y12833314D02*
X70368514Y12738076D01*
X70368514Y12738076D02*
X70416133Y12642838D01*
X34110705Y8356580D02*
X34110705Y9356580D01*
X34110705Y9356580D02*
X34348800Y9356580D01*
X34348800Y9356580D02*
X34491657Y9308961D01*
X34491657Y9308961D02*
X34586895Y9213723D01*
X34586895Y9213723D02*
X34634514Y9118485D01*
X34634514Y9118485D02*
X34682133Y8928009D01*
X34682133Y8928009D02*
X34682133Y8785152D01*
X34682133Y8785152D02*
X34634514Y8594676D01*
X34634514Y8594676D02*
X34586895Y8499438D01*
X34586895Y8499438D02*
X34491657Y8404200D01*
X34491657Y8404200D02*
X34348800Y8356580D01*
X34348800Y8356580D02*
X34110705Y8356580D01*
X35063086Y9261342D02*
X35110705Y9308961D01*
X35110705Y9308961D02*
X35205943Y9356580D01*
X35205943Y9356580D02*
X35444038Y9356580D01*
X35444038Y9356580D02*
X35539276Y9308961D01*
X35539276Y9308961D02*
X35586895Y9261342D01*
X35586895Y9261342D02*
X35634514Y9166104D01*
X35634514Y9166104D02*
X35634514Y9070866D01*
X35634514Y9070866D02*
X35586895Y8928009D01*
X35586895Y8928009D02*
X35015467Y8356580D01*
X35015467Y8356580D02*
X35634514Y8356580D01*
X14501667Y21008533D02*
X14501667Y22408533D01*
X15301667Y21008533D02*
X14701667Y21808533D01*
X15301667Y22408533D02*
X14501667Y21608533D01*
X16635000Y21008533D02*
X15835000Y21008533D01*
X16235000Y21008533D02*
X16235000Y22408533D01*
X16235000Y22408533D02*
X16101667Y22208533D01*
X16101667Y22208533D02*
X15968334Y22075200D01*
X15968334Y22075200D02*
X15835000Y22008533D01*
X37784105Y21019580D02*
X37784105Y22019580D01*
X37784105Y22019580D02*
X38022200Y22019580D01*
X38022200Y22019580D02*
X38165057Y21971961D01*
X38165057Y21971961D02*
X38260295Y21876723D01*
X38260295Y21876723D02*
X38307914Y21781485D01*
X38307914Y21781485D02*
X38355533Y21591009D01*
X38355533Y21591009D02*
X38355533Y21448152D01*
X38355533Y21448152D02*
X38307914Y21257676D01*
X38307914Y21257676D02*
X38260295Y21162438D01*
X38260295Y21162438D02*
X38165057Y21067200D01*
X38165057Y21067200D02*
X38022200Y21019580D01*
X38022200Y21019580D02*
X37784105Y21019580D01*
X39307914Y21019580D02*
X38736486Y21019580D01*
X39022200Y21019580D02*
X39022200Y22019580D01*
X39022200Y22019580D02*
X38926962Y21876723D01*
X38926962Y21876723D02*
X38831724Y21781485D01*
X38831724Y21781485D02*
X38736486Y21733866D01*
X33180295Y20449580D02*
X33180295Y21449580D01*
X33751723Y20449580D02*
X33323152Y21021009D01*
X33751723Y21449580D02*
X33180295Y20878152D01*
X62095019Y11194133D02*
X61618828Y10860800D01*
X62095019Y10622705D02*
X61095019Y10622705D01*
X61095019Y10622705D02*
X61095019Y11003657D01*
X61095019Y11003657D02*
X61142638Y11098895D01*
X61142638Y11098895D02*
X61190257Y11146514D01*
X61190257Y11146514D02*
X61285495Y11194133D01*
X61285495Y11194133D02*
X61428352Y11194133D01*
X61428352Y11194133D02*
X61523590Y11146514D01*
X61523590Y11146514D02*
X61571209Y11098895D01*
X61571209Y11098895D02*
X61618828Y11003657D01*
X61618828Y11003657D02*
X61618828Y10622705D01*
X62095019Y12146514D02*
X62095019Y11575086D01*
X62095019Y11860800D02*
X61095019Y11860800D01*
X61095019Y11860800D02*
X61237876Y11765562D01*
X61237876Y11765562D02*
X61333114Y11670324D01*
X61333114Y11670324D02*
X61380733Y11575086D01*
D11*
%TO.C,R3*%
X55905400Y15368400D02*
X55905400Y14598400D01*
X57275400Y14598400D02*
X54535400Y14598400D01*
X54535400Y14598400D02*
X54535400Y8058400D01*
X57275400Y8058400D02*
X57275400Y14598400D01*
X54535400Y8058400D02*
X57275400Y8058400D01*
X55905400Y7288400D02*
X55905400Y8058400D01*
%TO.C,D3*%
X52603000Y17632000D02*
X52603000Y20722000D01*
X52603000Y17632170D02*
G75*
G02*
X47053000Y19177462I-2560000J1544830D01*
G01*
X47053000Y19176538D02*
G75*
G02*
X52603000Y20721830I2990000J462D01*
G01*
X52543000Y19177000D02*
G75*
G02*
X47543000Y19177000I-2500000J0D01*
G01*
X47543000Y19177000D02*
G75*
G02*
X52543000Y19177000I2500000J0D01*
G01*
%TO.C,R2*%
X34517200Y14427200D02*
X35287200Y14427200D01*
X35287200Y15797200D02*
X35287200Y13057200D01*
X35287200Y13057200D02*
X41827200Y13057200D01*
X41827200Y15797200D02*
X35287200Y15797200D01*
X41827200Y13057200D02*
X41827200Y15797200D01*
X42597200Y14427200D02*
X41827200Y14427200D01*
%TO.C,J2*%
X1739800Y20277600D02*
X1739800Y4817600D01*
X1739800Y4817600D02*
X9209800Y4817600D01*
X2599800Y19127600D02*
X6899800Y19127600D01*
X2599800Y18377600D02*
X2599800Y19127600D01*
X2599800Y16127600D02*
X2599800Y16877600D01*
X2599800Y14047600D02*
X6899800Y14047600D01*
X2599800Y13297600D02*
X2599800Y14047600D01*
X2599800Y11047600D02*
X2599800Y11797600D01*
X2599800Y8967600D02*
X6899800Y8967600D01*
X2599800Y8217600D02*
X2599800Y8967600D01*
X2599800Y5967600D02*
X2599800Y6717600D01*
X6899800Y19127600D02*
X6899800Y18377600D01*
X6899800Y18377600D02*
X7249800Y18377600D01*
X6899800Y16877600D02*
X6899800Y16127600D01*
X6899800Y16127600D02*
X2599800Y16127600D01*
X6899800Y14047600D02*
X6899800Y13297600D01*
X6899800Y13297600D02*
X7249800Y13297600D01*
X6899800Y11797600D02*
X6899800Y11047600D01*
X6899800Y11047600D02*
X2599800Y11047600D01*
X6899800Y8967600D02*
X6899800Y8217600D01*
X6899800Y8217600D02*
X7249800Y8217600D01*
X6899800Y6717600D02*
X6899800Y5967600D01*
X6899800Y5967600D02*
X2599800Y5967600D01*
X7249800Y18877600D02*
X8249800Y19127600D01*
X7249800Y18377600D02*
X7249800Y18877600D01*
X7249800Y16877600D02*
X6899800Y16877600D01*
X7249800Y16377600D02*
X7249800Y16877600D01*
X7249800Y13797600D02*
X8249800Y14047600D01*
X7249800Y13297600D02*
X7249800Y13797600D01*
X7249800Y11797600D02*
X6899800Y11797600D01*
X7249800Y11297600D02*
X7249800Y11797600D01*
X7249800Y8717600D02*
X8249800Y8967600D01*
X7249800Y8217600D02*
X7249800Y8717600D01*
X7249800Y6717600D02*
X6899800Y6717600D01*
X7249800Y6217600D02*
X7249800Y6717600D01*
X8249800Y19127600D02*
X8249800Y16127600D01*
X8249800Y16127600D02*
X7249800Y16377600D01*
X8249800Y14047600D02*
X8249800Y11047600D01*
X8249800Y11047600D02*
X7249800Y11297600D01*
X8249800Y8967600D02*
X8249800Y5967600D01*
X8249800Y5967600D02*
X7249800Y6217600D01*
X8349800Y20667600D02*
X9599800Y20667600D01*
X9209800Y20277600D02*
X1739800Y20277600D01*
X9209800Y4817600D02*
X9209800Y20277600D01*
X9599800Y20667600D02*
X9599800Y18667600D01*
X2599800Y18377600D02*
G75*
G02*
X2599956Y16877953I-1700000J-750000D01*
G01*
X2599800Y13297600D02*
G75*
G02*
X2599956Y11797953I-1700000J-750000D01*
G01*
X2599800Y8217600D02*
G75*
G02*
X2599956Y6717953I-1700000J-750000D01*
G01*
%TO.C,U1*%
X44609400Y9478400D02*
X44609400Y4278400D01*
X44609400Y4278400D02*
X46259400Y4278400D01*
X48259400Y4278400D02*
X49909400Y4278400D01*
X49909400Y9478400D02*
X44609400Y9478400D01*
X49909400Y4278400D02*
X49909400Y9478400D01*
X46259400Y4278400D02*
G75*
G02*
X48259400Y4278400I1000000J0D01*
G01*
%TO.C,J1*%
X62115600Y20277600D02*
X62115600Y4817600D01*
X62115600Y4817600D02*
X69585600Y4817600D01*
X62975600Y19127600D02*
X67275600Y19127600D01*
X62975600Y18377600D02*
X62975600Y19127600D01*
X62975600Y16127600D02*
X62975600Y16877600D01*
X62975600Y14047600D02*
X67275600Y14047600D01*
X62975600Y13297600D02*
X62975600Y14047600D01*
X62975600Y11047600D02*
X62975600Y11797600D01*
X62975600Y8967600D02*
X67275600Y8967600D01*
X62975600Y8217600D02*
X62975600Y8967600D01*
X62975600Y5967600D02*
X62975600Y6717600D01*
X67275600Y19127600D02*
X67275600Y18377600D01*
X67275600Y18377600D02*
X67625600Y18377600D01*
X67275600Y16877600D02*
X67275600Y16127600D01*
X67275600Y16127600D02*
X62975600Y16127600D01*
X67275600Y14047600D02*
X67275600Y13297600D01*
X67275600Y13297600D02*
X67625600Y13297600D01*
X67275600Y11797600D02*
X67275600Y11047600D01*
X67275600Y11047600D02*
X62975600Y11047600D01*
X67275600Y8967600D02*
X67275600Y8217600D01*
X67275600Y8217600D02*
X67625600Y8217600D01*
X67275600Y6717600D02*
X67275600Y5967600D01*
X67275600Y5967600D02*
X62975600Y5967600D01*
X67625600Y18877600D02*
X68625600Y19127600D01*
X67625600Y18377600D02*
X67625600Y18877600D01*
X67625600Y16877600D02*
X67275600Y16877600D01*
X67625600Y16377600D02*
X67625600Y16877600D01*
X67625600Y13797600D02*
X68625600Y14047600D01*
X67625600Y13297600D02*
X67625600Y13797600D01*
X67625600Y11797600D02*
X67275600Y11797600D01*
X67625600Y11297600D02*
X67625600Y11797600D01*
X67625600Y8717600D02*
X68625600Y8967600D01*
X67625600Y8217600D02*
X67625600Y8717600D01*
X67625600Y6717600D02*
X67275600Y6717600D01*
X67625600Y6217600D02*
X67625600Y6717600D01*
X68625600Y19127600D02*
X68625600Y16127600D01*
X68625600Y16127600D02*
X67625600Y16377600D01*
X68625600Y14047600D02*
X68625600Y11047600D01*
X68625600Y11047600D02*
X67625600Y11297600D01*
X68625600Y8967600D02*
X68625600Y5967600D01*
X68625600Y5967600D02*
X67625600Y6217600D01*
X68725600Y20667600D02*
X69975600Y20667600D01*
X69585600Y20277600D02*
X62115600Y20277600D01*
X69585600Y4817600D02*
X69585600Y20277600D01*
X69975600Y20667600D02*
X69975600Y18667600D01*
X62975600Y18377600D02*
G75*
G02*
X62975756Y16877953I-1700000J-750000D01*
G01*
X62975600Y13297600D02*
G75*
G02*
X62975756Y11797953I-1700000J-750000D01*
G01*
X62975600Y8217600D02*
G75*
G02*
X62975756Y6717953I-1700000J-750000D01*
G01*
%TO.C,D2*%
X32288800Y6396400D02*
X32288800Y3306400D01*
X32288800Y6396230D02*
G75*
G02*
X37838800Y4850938I2560000J-1544830D01*
G01*
X37838800Y4851862D02*
G75*
G02*
X32288800Y3306570I-2990000J-462D01*
G01*
X37348800Y4851400D02*
G75*
G02*
X32348800Y4851400I-2500000J0D01*
G01*
X32348800Y4851400D02*
G75*
G02*
X37348800Y4851400I2500000J0D01*
G01*
D12*
%TO.C,K1*%
X11090000Y20259400D02*
X30090000Y20259400D01*
X11090000Y4759400D02*
X11090000Y20259400D01*
X30090000Y20259400D02*
X30090000Y4759400D01*
X30090000Y4759400D02*
X11090000Y4759400D01*
D11*
%TO.C,D1*%
X33952200Y20474400D02*
X43092200Y20474400D01*
X33952200Y20144400D02*
X33952200Y20474400D01*
X33952200Y16864400D02*
X33952200Y16534400D01*
X33952200Y16534400D02*
X43092200Y16534400D01*
X35287200Y20474400D02*
X35287200Y16534400D01*
X35407200Y20474400D02*
X35407200Y16534400D01*
X35527200Y20474400D02*
X35527200Y16534400D01*
X43092200Y20474400D02*
X43092200Y20144400D01*
X43092200Y16534400D02*
X43092200Y16864400D01*
%TO.C,R1*%
X57900200Y14630800D02*
X57900200Y8090800D01*
X57900200Y8090800D02*
X60640200Y8090800D01*
X59270200Y15400800D02*
X59270200Y14630800D01*
X59270200Y7320800D02*
X59270200Y8090800D01*
X60640200Y14630800D02*
X57900200Y14630800D01*
X60640200Y8090800D02*
X60640200Y14630800D01*
%TD*%
M02*
